<?xml version="1.0" standalone="no"?>
<!DOCTYPE svg PUBLIC "-//W3C//DTD SVG 20010904//EN"
 "http://www.w3.org/TR/2001/REC-SVG-20010904/DTD/svg10.dtd">
<svg version="1.0" xmlns="http://www.w3.org/2000/svg"
 width="492.000000pt" height="507.000000pt" viewBox="0 0 492.000000 507.000000"
 preserveAspectRatio="xMidYMid meet">

<g transform="translate(0.000000,507.000000) scale(0.100000,-0.100000)"
fill="#000000" stroke="none">
<path d="M2651 4980 c-1 -68 25 -261 39 -306 11 -34 29 -45 31 -21 1 6 1 30 0
52 -1 34 0 37 10 21 28 -46 59 -144 59 -187 0 -30 -13 -85 -35 -145 -19 -53
-35 -100 -35 -105 0 -22 31 -6 64 33 58 68 69 139 42 282 -23 120 -113 350
-160 411 -14 19 -15 17 -15 -35z"/>
<path d="M2987 4990 c-11 -51 -8 -89 7 -119 8 -15 21 -63 30 -107 41 -208 63
-311 70 -322 21 -35 194 -14 298 36 41 20 63 26 79 20 12 -5 46 -4 75 1 124
23 168 66 161 159 -4 51 -31 105 -52 103 -16 -1 -19 -103 -3 -112 24 -15 -14
-35 -90 -47 -41 -7 -77 -10 -82 -7 -5 3 -6 20 -3 38 7 44 -16 62 -81 63 -44 0
-51 3 -52 20 -3 56 -20 108 -66 202 -28 56 -56 101 -62 99 -6 -3 -10 -25 -9
-53 4 -69 34 -237 45 -251 14 -17 28 -7 28 20 0 18 2 19 10 7 13 -19 13 -101
0 -134 -13 -36 -47 -54 -112 -62 l-56 -7 -11 59 c-45 233 -82 377 -104 408
-13 18 -14 17 -20 -14z m428 -390 c7 -12 -36 -30 -68 -30 l-22 1 24 19 c25 22
56 26 66 10z"/>
<path d="M1925 4865 c8 -108 34 -274 47 -307 15 -39 28 -25 28 30 0 57 10 47
43 -46 36 -98 34 -138 -13 -278 -36 -109 -42 -120 -71 -132 l-32 -13 26 -27
c24 -25 25 -29 12 -59 -15 -36 -39 -43 -54 -15 -6 12 -5 28 5 51 13 31 13 34
-15 62 l-29 29 -24 -42 c-18 -32 -41 -52 -104 -88 -95 -54 -181 -119 -271
-203 -100 -94 -100 -93 26 -89 424 15 796 -262 904 -673 17 -64 21 -109 21
-225 0 -135 -2 -150 -27 -215 -18 -46 -31 -103 -38 -170 -15 -151 -50 -264
-120 -385 -88 -152 -230 -287 -386 -368 -51 -26 -93 -50 -93 -53 0 -12 204
-97 290 -122 141 -41 226 -52 395 -52 170 0 253 13 410 62 182 57 371 168 518
303 116 107 116 105 -16 106 -330 4 -619 177 -782 467 -94 169 -129 403 -91
600 8 40 17 117 20 173 15 255 109 459 293 635 91 87 140 123 241 173 39 20
72 38 72 41 0 11 -150 79 -243 110 -151 50 -268 68 -437 68 -190 -1 -291 -20
-337 -65 l-32 -31 -10 24 c-5 13 -6 29 -2 34 3 6 19 29 34 52 56 81 46 226
-29 444 -48 141 -80 210 -113 249 l-22 25 6 -80z"/>
<path d="M1773 4904 c-5 -14 22 -269 33 -306 3 -10 9 -18 14 -18 13 0 18 22
12 60 -4 29 -2 33 9 22 9 -8 14 -34 14 -70 0 -49 -5 -65 -37 -112 -21 -31 -42
-78 -48 -107 -7 -32 -17 -53 -25 -53 -17 0 -20 11 -40 130 -17 105 -69 316
-87 355 -17 38 -25 30 -31 -34 -5 -46 -2 -69 12 -103 10 -24 36 -128 56 -233
21 -104 42 -198 47 -208 15 -29 74 -50 101 -36 89 46 140 126 141 224 l1 60
-33 -2 c-32 -1 -33 0 -25 25 4 15 8 70 8 123 -1 96 -1 98 -50 198 -28 55 -54
101 -58 101 -4 0 -10 -7 -14 -16z"/>
<path d="M3338 4885 c-10 -21 -8 -28 12 -45 29 -25 34 -25 53 4 15 22 14 25
-7 45 -29 28 -44 27 -58 -4z"/>
<path d="M3577 4852 c-16 -17 -15 -20 6 -40 29 -28 43 -28 58 0 10 18 8 24
-11 40 -28 22 -33 22 -53 0z"/>
<path d="M2395 4830 c-3 -11 -29 -39 -57 -62 -59 -50 -82 -91 -98 -175 -31
-158 59 -322 179 -323 80 -1 170 63 207 146 12 29 28 54 35 56 17 6 19 139 2
145 -7 3 -23 -18 -36 -49 -41 -90 -111 -138 -202 -138 -77 0 -134 45 -148 115
-10 54 4 88 60 143 57 57 83 98 83 131 0 28 -17 35 -25 11z"/>
<path d="M2986 4674 c-3 -9 -6 -61 -6 -117 0 -91 -3 -108 -28 -162 -19 -39
-48 -78 -85 -112 -68 -61 -73 -78 -20 -68 85 16 147 68 168 138 16 57 19 275
4 315 -10 26 -24 29 -33 6z"/>
<path d="M2460 4653 c0 -5 -4 -15 -10 -23 -7 -12 -12 -12 -28 4 -23 20 -27 15
-37 -35 -6 -32 -3 -39 21 -58 l29 -22 9 21 c5 12 15 18 23 15 7 -3 19 -8 27
-11 10 -4 18 7 26 32 12 36 12 39 -16 61 -30 24 -44 29 -44 16z"/>
<path d="M1570 4455 c-7 -8 -24 -15 -38 -15 -25 0 -25 0 -20 -75 6 -86 -4 -99
-65 -93 l-32 3 3 78 c3 70 2 77 -15 77 -11 0 -24 -5 -30 -11 -6 -6 -26 -14
-45 -18 -32 -7 -33 -8 -36 -64 -3 -52 -1 -57 18 -57 27 0 26 -18 -2 -30 -13
-5 -79 -18 -148 -30 -73 -13 -132 -28 -143 -37 -9 -9 -23 -34 -29 -56 -13 -43
-13 -43 53 -89 l24 -17 -28 -26 c-15 -14 -37 -25 -48 -25 -36 0 -80 31 -94 64
-16 38 -11 66 24 135 13 24 21 56 19 73 -3 36 -28 52 -28 19 0 -12 -13 -47
-29 -79 -16 -31 -32 -71 -35 -89 -11 -50 13 -112 66 -167 44 -46 46 -50 32
-71 -13 -19 -12 -23 3 -37 31 -26 44 -30 59 -17 11 9 18 8 33 -5 16 -15 19
-15 34 2 23 25 21 34 -9 55 -20 15 -28 16 -40 6 -12 -10 -18 -9 -32 4 -15 16
-15 17 3 17 11 0 35 9 53 20 53 32 104 165 72 185 -25 15 -4 23 82 30 100 7
141 22 159 58 17 32 17 32 43 4 19 -21 35 -27 66 -27 51 0 68 17 115 113 32
65 36 81 33 138 -2 49 -7 65 -19 67 -9 1 -22 -4 -29 -13z"/>
<path d="M3295 3873 c-55 -11 -172 -58 -225 -89 -64 -37 -176 -136 -212 -187
-23 -33 -19 -31 50 16 119 80 242 116 424 124 l137 6 -62 68 c-60 67 -69 72
-112 62z"/>
<path d="M3234 3601 c-96 -44 -174 -156 -174 -252 0 -103 69 -211 165 -255 59
-28 156 -32 211 -9 56 23 118 81 149 137 71 131 12 303 -127 372 -65 32 -161
35 -224 7z"/>
<path d="M1374 2601 c-55 -25 -120 -85 -147 -135 -31 -58 -31 -184 0 -242 33
-61 106 -121 171 -140 138 -41 272 18 335 145 30 63 31 178 0 236 -29 54 -88
109 -143 134 -59 27 -159 28 -216 2z"/>
<path d="M1906 2030 c-121 -58 -236 -82 -390 -82 l-129 0 72 -72 73 -73 42 8
c109 20 238 86 344 176 41 35 85 87 70 82 -2 0 -38 -18 -82 -39z"/>
<path d="M4146 1954 c-14 -98 -17 -195 -6 -258 8 -50 8 -72 0 -80 -18 -18 -27
10 -40 130 -7 63 -14 114 -16 114 -2 0 -10 -12 -17 -27 -10 -21 -13 -58 -10
-143 4 -103 -4 -156 -21 -139 -4 3 -11 55 -17 115 -6 60 -14 113 -19 117 -4 5
-20 -7 -36 -27 -21 -26 -31 -32 -41 -25 -20 17 -72 -27 -96 -80 -15 -34 -21
-71 -23 -138 -4 -158 -26 -149 -44 17 -5 57 -14 108 -19 113 -4 4 -16 1 -25
-8 -9 -9 -24 -14 -35 -10 -10 3 -23 -1 -31 -10 -16 -20 -30 -10 -30 21 0 41
-20 23 -41 -36 -10 -30 -21 -61 -24 -69 -4 -11 -9 -11 -23 3 -26 22 -37 20
-62 -11 -14 -19 -23 -24 -26 -15 -8 19 -25 15 -55 -14 -31 -30 -45 -26 -54 16
-3 16 -21 42 -38 57 -18 16 -37 42 -42 58 -33 95 -147 -24 -181 -187 -28 -134
0 -245 76 -296 43 -29 81 -24 123 16 45 42 67 95 79 190 10 82 23 111 40 94 5
-5 13 -44 19 -89 9 -61 9 -89 0 -114 -9 -27 -9 -34 3 -41 10 -6 17 -35 22 -88
3 -44 10 -80 15 -80 5 0 16 14 25 31 12 24 14 45 9 90 -6 54 -5 62 18 89 30
35 52 122 51 203 -1 41 2 57 12 57 15 0 18 -11 33 -129 6 -47 17 -88 24 -93 8
-5 22 3 40 22 32 35 34 50 8 50 -15 0 -20 13 -31 91 -6 50 -10 92 -8 93 1 2
18 11 36 20 40 20 38 24 51 -113 11 -120 21 -134 66 -91 21 20 37 28 51 24 15
-4 27 2 43 21 24 32 25 31 41 -72 7 -40 17 -76 23 -80 12 -7 67 54 67 75 0 9
-7 11 -19 7 -22 -7 -21 -8 -41 125 -5 36 -12 104 -16 151 -6 73 -4 87 9 92 9
3 18 3 21 -1 2 -4 10 -55 16 -112 7 -58 15 -109 19 -113 14 -15 41 5 58 45 15
35 19 37 30 22 16 -22 37 -6 55 42 9 25 16 33 29 29 22 -7 35 15 44 79 6 35 5
47 -4 42 -6 -4 -11 -14 -11 -22 0 -14 -20 -21 -21 -6 0 4 -1 63 -2 132 -1 72
-7 133 -13 144 -10 17 -12 15 -18 -20z m-260 -389 c4 -46 2 -80 -6 -100 l-12
-30 -13 35 c-17 43 -19 134 -4 162 17 31 28 10 35 -67z m-736 -65 c-24 -68
-25 -102 -4 -146 18 -39 54 -46 86 -17 19 17 25 63 8 63 -5 0 -10 -4 -10 -10
0 -18 -39 -11 -50 9 -27 51 0 131 43 131 83 0 126 -171 73 -283 -41 -85 -123
-79 -171 13 -22 43 -31 151 -16 206 10 37 49 100 56 92 2 -2 -5 -28 -15 -58z
m354 -42 c3 -13 6 -56 6 -96 0 -56 -3 -74 -15 -79 -9 -3 -19 -3 -22 1 -8 8 -9
158 -1 179 10 24 24 21 32 -5z"/>
<path d="M3701 1791 c-14 -25 -14 -108 -1 -116 13 -8 41 64 38 99 -4 36 -23
45 -37 17z"/>
<path d="M2708 1447 c-33 -27 -35 -43 -8 -50 30 -8 26 -58 -10 -109 -33 -47
-53 -132 -48 -201 2 -32 -1 -42 -12 -42 -12 0 -18 23 -26 102 -6 56 -14 109
-17 117 -10 24 -43 19 -66 -10 l-21 -26 -18 22 -19 23 -37 -28 c-35 -27 -37
-27 -56 -10 -30 27 -62 7 -94 -56 -45 -91 -27 -231 32 -246 29 -7 48 3 76 41
18 23 21 44 22 124 1 77 5 98 17 100 19 4 25 -22 33 -147 4 -55 9 -101 11
-101 2 0 13 5 24 10 17 9 19 22 19 108 0 107 7 145 24 139 6 -2 14 -47 19
-108 10 -125 19 -138 67 -105 31 21 37 22 56 9 19 -12 25 -11 51 11 27 22 31
23 45 10 13 -14 18 -12 47 12 29 24 35 25 56 14 20 -11 28 -10 49 4 49 32 55
84 7 54 -18 -11 -23 -10 -35 7 -20 26 -20 49 0 66 44 36 62 145 30 177 -22 23
-45 8 -74 -49 -21 -39 -23 -54 -19 -136 4 -83 2 -93 -13 -93 -20 0 -24 17 -41
205 -17 190 -22 202 -71 162z m195 -158 c7 -25 -8 -69 -23 -69 -11 0 -13 33
-4 68 8 28 20 28 27 1z m-169 -61 c8 -30 8 -132 0 -152 -3 -9 -12 -16 -19 -16
-14 0 -39 117 -30 144 3 9 7 23 10 31 7 23 32 18 39 -7z m-385 -65 c21 -46 25
-145 7 -168 -16 -20 -16 -20 -31 -1 -29 38 -40 149 -18 189 9 16 30 6 42 -20z"/>
<path d="M1253 1386 c-34 -30 -37 -38 -36 -84 0 -29 6 -97 13 -152 7 -55 10
-103 6 -107 -4 -4 -16 -2 -26 5 -18 11 -20 9 -20 -12 0 -34 30 -67 154 -168
119 -98 179 -132 206 -118 43 23 50 63 10 53 -12 -3 -45 10 -85 33 -67 39 -79
54 -46 54 24 0 66 34 58 47 -4 6 -18 8 -31 6 -20 -4 -28 1 -41 27 -16 31 -16
32 19 71 40 44 47 89 20 127 -22 32 -53 25 -82 -18 -21 -31 -23 -44 -20 -105
3 -39 13 -85 22 -103 10 -19 15 -36 12 -39 -4 -5 -136 83 -136 91 0 2 7 18 16
36 15 29 15 46 4 166 -11 121 -11 137 4 159 11 17 26 25 46 25 29 0 70 -30 70
-51 0 -18 23 -4 31 20 14 36 -28 71 -86 71 -38 0 -52 -6 -82 -34z m177 -285
c0 -24 -16 -44 -29 -37 -12 8 -15 45 -4 72 6 16 7 16 20 -2 7 -10 13 -25 13
-33z"/>
<path d="M2116 1368 c-47 -54 -74 -111 -88 -184 -17 -94 -18 -94 -57 -14 -37
77 -45 134 -27 194 8 27 7 28 -15 20 -13 -5 -69 -8 -124 -6 -85 2 -105 0 -131
-16 -106 -66 -130 -241 -47 -333 30 -33 42 -39 74 -39 79 0 125 100 84 179
-19 37 -39 44 -66 22 -24 -19 -19 -41 11 -41 22 0 40 -47 29 -77 -14 -38 -42
-45 -80 -20 -45 30 -63 70 -63 139 -1 49 3 62 25 84 33 33 88 46 166 38 l63
-6 -5 -52 c-3 -28 -7 -98 -8 -156 -3 -108 -19 -161 -52 -173 -24 -10 -45 3
-45 29 0 32 -18 30 -31 -3 -23 -61 22 -108 77 -82 47 22 80 102 89 209 4 49
10 90 14 90 8 0 111 -245 111 -265 0 -18 16 -20 26 -3 4 7 8 80 9 163 1 134 3
154 23 192 12 23 25 44 29 46 5 3 8 -52 8 -121 1 -221 50 -320 128 -254 24 21
21 30 -10 34 -24 3 -31 11 -48 58 -16 46 -19 82 -20 223 0 92 -3 167 -7 167
-3 0 -23 -19 -42 -42z"/>
</g>
</svg>
